<svg width="18" height="18" viewBox="0 0 18 18" fill="none" xmlns="http://www.w3.org/2000/svg">
<path d="M15.875 13.8125V15.875H2.125V13.8125C2.125 13.4344 2.43437 13.125 2.8125 13.125H15.1875C15.5656 13.125 15.875 13.4344 15.875 13.8125Z" fill="#33B938" stroke="#33B938" stroke-width="1.5" stroke-miterlimit="10" stroke-linecap="round" stroke-linejoin="round"/>
<path d="M5.0625 8.8125V12.625H4.6875V8.8125H5.0625Z" fill="#33B938" stroke="#33B938"/>
<path d="M7.8125 8.8125V12.625H7.4375V8.8125H7.8125Z" fill="#33B938" stroke="#33B938"/>
<path d="M10.5625 8.8125V12.625H10.1875V8.8125H10.5625Z" fill="#33B938" stroke="#33B938"/>
<path d="M13.3125 8.8125V12.625H12.9375V8.8125H13.3125Z" fill="#33B938" stroke="#33B938"/>
<path d="M1.4375 15.8594H16.5625C16.5633 15.8594 16.5641 15.8598 16.5654 15.8604C16.5672 15.8611 16.5696 15.8626 16.5723 15.8652C16.5749 15.8679 16.5764 15.8703 16.5771 15.8721C16.5777 15.8734 16.5781 15.8742 16.5781 15.875C16.5781 15.8758 16.5777 15.8766 16.5771 15.8779C16.5764 15.8797 16.5749 15.8821 16.5723 15.8848C16.5696 15.8874 16.5672 15.8889 16.5654 15.8896C16.5641 15.8902 16.5633 15.8906 16.5625 15.8906H1.4375C1.43669 15.8906 1.43595 15.8902 1.43457 15.8896C1.43283 15.8889 1.43035 15.8874 1.42773 15.8848C1.42512 15.8821 1.42362 15.8797 1.42285 15.8779C1.42226 15.8766 1.42188 15.8758 1.42188 15.875C1.42188 15.8742 1.42226 15.8734 1.42285 15.8721C1.42362 15.8703 1.42512 15.8679 1.42773 15.8652C1.43035 15.8626 1.43283 15.8611 1.43457 15.8604C1.43595 15.8598 1.43669 15.8594 1.4375 15.8594Z" fill="#33B938" stroke="#33B938"/>
<path d="M9.05762 2.6908C9.06203 2.6915 9.06586 2.69222 9.06836 2.69275L15.2559 5.16736C15.2672 5.1719 15.302 5.19313 15.335 5.24158C15.3676 5.28965 15.3749 5.3293 15.375 5.34216V7.62537C15.3748 7.72719 15.2894 7.81287 15.1875 7.81287H2.8125C2.71063 7.81287 2.6252 7.72719 2.625 7.62537V5.34216C2.62513 5.3293 2.63239 5.28965 2.66504 5.24158C2.698 5.19313 2.73279 5.1719 2.74414 5.16736L8.93164 2.69275C8.93414 2.69222 8.93797 2.6915 8.94238 2.6908C8.95766 2.6884 8.97766 2.68689 9 2.68689C9.02234 2.68689 9.04234 2.6884 9.05762 2.6908ZM9 4.03162C8.15323 4.03162 7.46875 4.7161 7.46875 5.56287C7.46894 6.40947 8.15335 7.09412 9 7.09412C9.84665 7.09412 10.5311 6.40947 10.5312 5.56287C10.5312 4.7161 9.84677 4.03162 9 4.03162Z" fill="#33B938" stroke="#33B938"/>
</svg>
