<svg width="24" height="24" viewBox="0 0 24 24" fill="none" xmlns="http://www.w3.org/2000/svg">
<path d="M15.22 6.55005H5.78C5.5 6.55005 5.24 6.56005 5 6.57005C2.63 6.71005 2 7.58005 2 10.28V10.86C2 11.41 2.45 11.86 3 11.86H18C18.55 11.86 19 11.41 19 10.86V10.28C19 7.30005 18.24 6.55005 15.22 6.55005Z" fill="white"/>
<path d="M3 13.3601C2.45 13.3601 2 13.8101 2 14.3601V17.2701C2 20.2501 2.76 21.0001 5.78 21.0001H15.22C18.19 21.0001 18.97 20.2801 19 17.4301V14.3601C19 13.8101 18.55 13.3601 18 13.3601H3ZM6.96 18.5601H5.25C4.84 18.5601 4.5 18.2201 4.5 17.8101C4.5 17.4001 4.84 17.0601 5.25 17.0601H6.97C7.38 17.0601 7.72 17.4001 7.72 17.8101C7.72 18.2201 7.38 18.5601 6.96 18.5601ZM12.55 18.5601H9.11C8.7 18.5601 8.36 18.2201 8.36 17.8101C8.36 17.4001 8.7 17.0601 9.11 17.0601H12.55C12.96 17.0601 13.3 17.4001 13.3 17.8101C13.3 18.2201 12.97 18.5601 12.55 18.5601Z" fill="white"/>
<path d="M22 13.3301V8.0901C22 4.9601 20.21 3.6001 17.51 3.6001H8.57999C7.81999 3.6001 7.13999 3.7101 6.53999 3.9401C6.06999 4.1101 5.64999 4.3601 5.30999 4.6901C5.12999 4.8601 5.26999 5.1401 5.52999 5.1401H16.4C18.65 5.1401 20.47 6.9601 20.47 9.2101V16.3801C20.47 16.6301 20.74 16.7701 20.92 16.5901C21.61 15.8601 22 14.7901 22 13.3301Z" fill="white"/>
</svg>
