<svg width="15" height="22" viewBox="0 0 15 22" fill="none" xmlns="http://www.w3.org/2000/svg">
<g clip-path="url(#clip0_129_9499)">
<path d="M3.66667 22C5.69067 22 7.33333 20.3573 7.33333 18.3333V14.6667H3.66667C1.64267 14.6667 0 16.3093 0 18.3333C0 20.3573 1.64267 22 3.66667 22Z" fill="#0ACF83"/>
<path d="M0 11C0 8.97601 1.64267 7.33334 3.66667 7.33334H7.33333V14.6667H3.66667C1.64267 14.6667 0 13.024 0 11Z" fill="#A259FF"/>
<path d="M0 3.66667C0 1.64267 1.64267 0 3.66667 0H7.33333V7.33333H3.66667C1.64267 7.33333 0 5.69067 0 3.66667Z" fill="#F24E1E"/>
<path d="M7.3335 0H11.0002C13.0242 0 14.6668 1.64267 14.6668 3.66667C14.6668 5.69067 13.0242 7.33333 11.0002 7.33333H7.3335V0Z" fill="#FF7262"/>
<path d="M14.6668 11C14.6668 13.024 13.0242 14.6667 11.0002 14.6667C8.97616 14.6667 7.3335 13.024 7.3335 11C7.3335 8.97601 8.97616 7.33334 11.0002 7.33334C13.0242 7.33334 14.6668 8.97601 14.6668 11Z" fill="#1ABCFE"/>
</g>
<defs>
<clipPath id="clip0_129_9499">
<rect width="14.6667" height="22" fill="white"/>
</clipPath>
</defs>
</svg>
