<svg width="17" height="20" viewBox="0 0 17 20" fill="none" xmlns="http://www.w3.org/2000/svg">
<g clip-path="url(#clip0_129_9484)">
<path d="M13.9945 2.05386C13.0966 1.03042 11.4735 0.591644 9.39705 0.591644H3.3706C3.16516 0.591652 2.96645 0.664948 2.81022 0.798354C2.65398 0.93176 2.55045 1.11653 2.51825 1.31943L0.00895308 17.234C-0.0409236 17.5479 0.20208 17.832 0.520157 17.832H4.24068L5.17506 11.9054L5.14606 12.091C5.21263 11.6721 5.57091 11.3631 5.99519 11.3631H7.76317C11.2364 11.3631 13.9559 9.95236 14.7504 5.87142C14.7739 5.75073 14.7944 5.63325 14.812 5.51848C14.7118 5.46538 14.7118 5.46538 14.812 5.51848C15.0486 4.01013 14.8104 2.98341 13.9945 2.05386Z" fill="#27346A"/>
<path d="M6.59867 4.97512C6.70039 4.92669 6.81163 4.90159 6.92429 4.90166H11.6489C12.2084 4.90166 12.7302 4.93807 13.2071 5.01482C13.3405 5.03609 13.4733 5.0615 13.6051 5.09099C13.792 5.13223 13.9768 5.1827 14.1587 5.24223C14.3931 5.32052 14.6114 5.41171 14.8121 5.51848C15.0486 4.00955 14.8104 2.98341 13.9945 2.05386C13.0961 1.03042 11.4735 0.591644 9.39705 0.591644H3.37009C2.94575 0.591644 2.58476 0.900571 2.51825 1.31943L0.00895344 17.2335C-0.0409233 17.5478 0.202081 17.8316 0.519642 17.8316H4.24068L6.17923 5.53833C6.19829 5.4175 6.24643 5.30311 6.31949 5.205C6.39256 5.10689 6.48836 5.028 6.59867 4.97512Z" fill="#27346A"/>
<path d="M14.7503 5.87143C13.9559 9.95179 11.2364 11.3631 7.76316 11.3631H5.99466C5.57039 11.3631 5.21204 11.6721 5.14612 12.091L3.98368 19.4601C3.94025 19.7347 4.15264 19.9836 4.43051 19.9836H7.56681C7.74647 19.9835 7.92022 19.9194 8.0568 19.8027C8.19339 19.686 8.28386 19.5244 8.31193 19.3469L8.34248 19.1871L8.93359 15.4408L8.97167 15.2338C8.99975 15.0563 9.0902 14.8947 9.22678 14.778C9.36335 14.6613 9.53708 14.5971 9.71673 14.5971H10.1861C13.2243 14.5971 15.6032 13.3628 16.2984 9.79307C16.5886 8.30128 16.4384 7.05578 15.6708 6.18094C15.438 5.91596 15.1488 5.69712 14.812 5.51849C14.7938 5.63384 14.774 5.75074 14.7503 5.87143Z" fill="#2790C3"/>
<path d="M13.98 5.18702C13.8562 5.15085 13.7311 5.11883 13.6051 5.091C13.4732 5.06199 13.3405 5.03677 13.2071 5.01535C12.7297 4.93809 12.2083 4.90161 11.6483 4.90161H6.92422C6.81148 4.90136 6.70015 4.92667 6.59861 4.97566C6.48818 5.02837 6.39226 5.10721 6.31916 5.20535C6.24606 5.30348 6.19799 5.41796 6.1791 5.53886L5.17499 11.9054L5.146 12.091C5.21205 11.6721 5.57033 11.3631 5.99467 11.3631H7.76317C11.2364 11.3631 13.9559 9.95237 14.7503 5.87144C14.7739 5.75074 14.7938 5.63378 14.812 5.5185C14.6108 5.4123 14.3931 5.32054 14.1586 5.24276C14.0994 5.22314 14.0399 5.20456 13.9801 5.18702" fill="#1F264F"/>
</g>
<defs>
<clipPath id="clip0_129_9484">
<rect width="16.4967" height="19.4609" fill="white" transform="translate(0 0.539062)"/>
</clipPath>
</defs>
</svg>
