<svg width="23" height="23" viewBox="0 0 23 23" fill="none" xmlns="http://www.w3.org/2000/svg">
<path d="M9.10425 13.1771C9.10425 14.1066 9.82301 14.8541 10.7047 14.8541H12.5063C13.273 14.8541 13.8959 14.2025 13.8959 13.3879C13.8959 12.5158 13.5126 12.1996 12.9472 11.9983L10.0626 10.9921C9.49716 10.7908 9.11384 10.4841 9.11384 9.60248C9.11384 8.79748 9.73674 8.13623 10.5034 8.13623H12.3051C13.1867 8.13623 13.9055 8.88373 13.9055 9.81331" stroke="white" stroke-width="1.5" stroke-linecap="round" stroke-linejoin="round"/>
<path d="M11.5001 7.1875V15.8125" stroke="white" stroke-width="1.5" stroke-linecap="round" stroke-linejoin="round"/>
<path d="M21.0834 11.5C21.0834 16.79 16.7901 21.0834 11.5001 21.0834C6.21008 21.0834 1.91675 16.79 1.91675 11.5C1.91675 6.21002 6.21008 1.91669 11.5001 1.91669" stroke="white" stroke-width="1.5" stroke-linecap="round" stroke-linejoin="round"/>
<path d="M16.2916 2.875V6.70833H20.125" stroke="white" stroke-width="1.5" stroke-linecap="round" stroke-linejoin="round"/>
<path d="M21.0833 1.91669L16.2916 6.70835" stroke="white" stroke-width="1.5" stroke-linecap="round" stroke-linejoin="round"/>
</svg>
