<svg width="23" height="23" viewBox="0 0 23 23" fill="none" xmlns="http://www.w3.org/2000/svg">
<path d="M9.10413 13.1771C9.10413 14.1066 9.82289 14.8541 10.7046 14.8541H12.5062C13.2729 14.8541 13.8958 14.2025 13.8958 13.3879C13.8958 12.5158 13.5125 12.1996 12.9471 11.9983L10.0625 10.9921C9.49704 10.7908 9.11372 10.4841 9.11372 9.60248C9.11372 8.79748 9.73662 8.13623 10.5033 8.13623H12.305C13.1866 8.13623 13.9054 8.88373 13.9054 9.81331" stroke="#1A202C" stroke-width="1.5" stroke-linecap="round" stroke-linejoin="round"/>
<path d="M11.5 7.1875V15.8125" stroke="#1A202C" stroke-width="1.5" stroke-linecap="round" stroke-linejoin="round"/>
<path d="M21.0833 11.5C21.0833 16.79 16.79 21.0834 11.5 21.0834C6.20996 21.0834 1.91663 16.79 1.91663 11.5C1.91663 6.21002 6.20996 1.91669 11.5 1.91669" stroke="#1A202C" stroke-width="1.5" stroke-linecap="round" stroke-linejoin="round"/>
<path d="M21.0833 5.75002V1.91669H17.25" stroke="#1A202C" stroke-width="1.5" stroke-linecap="round" stroke-linejoin="round"/>
<path d="M16.2916 6.70835L21.0833 1.91669" stroke="#1A202C" stroke-width="1.5" stroke-linecap="round" stroke-linejoin="round"/>
</svg>
